<?xml version="1.0" encoding="iso-8859-1"?>
<!-- Generator: Adobe Illustrator 19.0.0, SVG Export Plug-In . SVG Version: 6.00 Build 0)  -->
<svg version="1.1" id="Layer_1" xmlns="http://www.w3.org/2000/svg" xmlns:xlink="http://www.w3.org/1999/xlink" x="0px" y="0px"
	 viewBox="0 0 512 512" style="enable-background:new 0 0 512 512;" xml:space="preserve">
<path style="fill:#4687D2;" d="M494.96,178c5.412,22.969,8.295,47.101,8.295,71.994C503.256,404.217,392.556,504,256,504
	S8.744,404.217,8.744,249.994c0-24.396,2.77-48.062,7.974-70.616L494.96,178z"/>
<g>
	<ellipse style="fill:#2D6EC8;" cx="256" cy="309" rx="80" ry="55"/>
	<path style="fill:#2D6EC8;" d="M16.718,179.377c-4.527,19.625-7.085,40.125-7.707,61.181C70.038,275.635,88.712,216.4,216,288
		V178.803L16.718,179.377z"/>
	<path style="fill:#2D6EC8;" d="M495.282,179.377c4.527,19.625,7.085,40.125,7.707,61.181C441.962,275.635,423.288,216.4,296,288
		V178.803L495.282,179.377z"/>
</g>
<path style="fill:#46B8BE;" d="M283.837,296c56.254,0,66.342-62.579,139.187-72c81.192-10.5,88.878-63.555,74.233-88
	C456.072,67.255,352.586,8,256,8S55.928,67.255,14.743,136c-14.646,24.445-6.959,77.5,74.233,88c72.845,9.421,82.932,72,139.187,72
	H283.837z"/>
<path style="fill:#464655;" d="M256,464c14,0,27.333-136,32-160c0-14.667-18.745-24-32-24c-13.255,0-32,9.333-32,24
	C228.667,328,242,464,256,464z"/>
<g>
	<path style="fill:#466693;" d="M15.797,314.697c9.207,40.851,27.109,76.266,51.494,105.062C111.282,400.283,136,320,136,320l-32-48
		C104,272,62.825,313.029,15.797,314.697z"/>
	<path style="fill:#466693;" d="M496.204,314.697c-9.207,40.851-27.11,76.266-51.494,105.062C400.718,400.283,376,320,376,320l32-48
		C408,272,449.175,313.029,496.204,314.697z"/>
</g>
<g>
	<ellipse style="fill:#464655;" cx="120" cy="300" rx="18" ry="31.5"/>
	<ellipse style="fill:#464655;" cx="392" cy="300" rx="18" ry="31.5"/>
</g>
<path style="fill:#469FC8;" d="M387.615,41.25C346.816,20.797,300.705,8,256,8s-90.816,12.797-131.616,33.25
	C178.691,72.354,204.305,224,256,224S333.309,72.354,387.615,41.25z"/>
<path d="M502.197,190.589c1.14-1.865,2.142-3.704,3.009-5.493c10.151-20.949,6.095-41.222-1.085-53.208
	c-21.08-35.185-57.623-68.105-102.898-92.697C354.695,13.918,303.12,0,256,0s-98.695,13.918-145.222,39.19
	C65.502,63.782,28.959,96.703,7.88,131.888c-7.181,11.986-11.237,32.259-1.085,53.208c0.921,1.902,1.998,3.861,3.229,5.848
	c-0.484,0.742-0.86,1.57-1.081,2.48c-5.441,22.424-8.2,45.65-8.2,69.036c0,36.757,6.751,71.32,20.065,102.732
	c12.756,30.095,31.219,56.628,54.876,78.862C122.304,487.87,186.341,512,256,512s133.696-24.13,180.315-67.945
	c23.657-22.234,42.12-48.768,54.876-78.862c13.314-31.412,20.065-65.976,20.065-102.732c0-23.857-2.87-47.538-8.53-70.384
	C502.597,191.554,502.417,191.059,502.197,190.589z M21.605,140.11C63.3,70.516,166.259,16,256,16s192.7,54.516,234.395,124.11
	c4.802,8.016,7.792,22.78,0.413,38.009c-9.684,19.984-34.121,33.461-68.809,37.947c-38.889,5.029-60.949,24.217-80.18,41.556
	c-2.946,2.251-5.889,4.752-8.826,7.54c-0.432,0.41-0.804,0.859-1.124,1.334C317.843,278.644,304.093,288,283.837,288
	c-0.621,0-1.222,0.078-1.802,0.211C274.094,282.828,264.142,280,256,280c-8.142,0-18.094,2.828-26.036,8.211
	c-0.58-0.133-1.181-0.211-1.802-0.211c-24.321,0-39.263-13.485-56.564-29.1c-19.57-17.662-41.751-37.681-81.597-42.834
	c-34.688-4.486-59.125-17.963-68.809-37.947C13.814,162.891,16.803,148.126,21.605,140.11z M494.249,238.785
	c-16.798,12.54-36.858,9.063-59.969,5.056c-12.387-2.148-25.43-4.407-38.819-4.306c8.316-3.521,17.694-6.192,28.589-7.602
	c32.3-4.177,52.618-14.564,65.398-26.091C491.704,216.676,493.308,227.682,494.249,238.785z M279.977,311.371
	c-1.133,6.127-2.662,17.199-4.574,31.038c-2.96,21.429-6.645,48.099-10.851,71.104c-3.591,19.638-6.501,30.514-8.552,36.51
	c-2.051-5.996-4.961-16.872-8.552-36.51c-4.206-23.006-7.89-49.676-10.851-71.104c-1.912-13.839-3.441-24.911-4.574-31.038
	C232.669,302.557,246.777,296,256,296C265.223,296,279.331,302.557,279.977,311.371z M116.558,239.543
	c-13.695-0.21-27.034,2.103-39.688,4.298c-22.744,3.943-42.532,7.363-59.166-4.483c0.934-11.299,2.551-22.499,4.846-33.518
	c12.78,11.527,33.099,21.916,65.401,26.094C98.853,233.344,108.237,236.018,116.558,239.543z M256,496
	c-138.634,0-239.256-98.218-239.256-233.54c0-1.692,0.021-3.384,0.051-5.073c19.856,9.653,41.631,5.889,62.808,2.219
	c30.2-5.238,58.727-10.185,87.539,17.162c0.611,0.58,1.291,1.04,2.011,1.39c13.836,12.059,28.181,22.421,48.369,25.143
	c-0.974,2.687-1.521,5.586-1.521,8.7c0,0.513,0.049,1.023,0.147,1.527c1.064,5.473,2.703,17.335,4.601,31.071
	c3.109,22.505,7.367,53.326,12.11,77.912C240.085,459.975,245.708,472,256,472s15.915-12.025,23.143-49.489
	c4.743-24.586,9.001-55.407,12.11-77.912c1.897-13.736,3.536-25.599,4.601-31.071c0.098-0.504,0.147-1.015,0.147-1.527
	c0-3.114-0.548-6.014-1.521-8.7c24.221-3.266,40.029-17.526,56.643-32.521c0.298-0.269,0.597-0.538,0.895-0.808
	c26.107-19.626,52.129-15.116,79.53-10.365c21.475,3.724,43.568,7.554,63.65-2.624c0.036,1.825,0.06,3.65,0.06,5.479
	C495.256,397.782,394.634,496,256,496z"/>
<path d="M120,264c-13.682,0-24,15.477-24,36s10.318,36,24,36s24-15.477,24-36S133.682,264,120,264z M120,320c-2.322,0-8-7.009-8-20
	s5.678-20,8-20s8,7.009,8,20S122.322,320,120,320z"/>
<path d="M392,264c-13.682,0-24,15.477-24,36s10.318,36,24,36s24-15.477,24-36S405.682,264,392,264z M392,320c-2.322,0-8-7.009-8-20
	s5.678-20,8-20s8,7.009,8,20S394.322,320,392,320z"/>
<path d="M219.322,271.256C229.398,266.577,242.424,264,256,264s26.602,2.577,36.678,7.256c1.091,0.507,2.236,0.746,3.364,0.746
	c3.018,0,5.907-1.716,7.261-4.633c1.861-4.007,0.121-8.764-3.886-10.625C287.274,251.105,271.855,248,256,248
	s-31.274,3.105-43.417,8.744c-4.007,1.861-5.747,6.618-3.886,10.625C210.558,271.377,215.315,273.115,219.322,271.256z"/>
<g>
</g>
<g>
</g>
<g>
</g>
<g>
</g>
<g>
</g>
<g>
</g>
<g>
</g>
<g>
</g>
<g>
</g>
<g>
</g>
<g>
</g>
<g>
</g>
<g>
</g>
<g>
</g>
<g>
</g>
</svg>
